<svg id="Laag_1" data-name="Laag 1" xmlns="http://www.w3.org/2000/svg" viewBox="0 0 454.35 403.69"><defs><style>.cls-1{fill:#fff;}</style></defs><title>Tekengebied 1 kopie 33</title><path class="cls-1" d="M21.2,335.52a10.23,10.23,0,0,1-2.95,7.66,10.13,10.13,0,0,1-7.41,2.9,10.31,10.31,0,0,1-7.5-2.9,10.2,10.2,0,0,1-3-7.66V321.65H5.44v14.26a5.27,5.27,0,0,0,1.53,4,5.33,5.33,0,0,0,3.87,1.49,5.11,5.11,0,0,0,3.74-1.49,5.29,5.29,0,0,0,1.51-4V321.65H21.2Z"/><path class="cls-1" d="M46.83,323.72a9.81,9.81,0,0,1,2.39,6.89v14.93H44.11V331.29a5.63,5.63,0,0,0-1.44-4,4.91,4.91,0,0,0-3.77-1.53A5.25,5.25,0,0,0,35,327.3a5.44,5.44,0,0,0-1.53,4v14.25H28.35V321.65h4.77V324a9.2,9.2,0,0,1,7.15-2.92A8.46,8.46,0,0,1,46.83,323.72Z"/><path class="cls-1" d="M61.33,310.34a3.26,3.26,0,0,1,1,2.41,3.18,3.18,0,0,1-1,2.39,3.43,3.43,0,0,1-2.43,1,3.5,3.5,0,0,1-2.48-1,3.18,3.18,0,0,1-1-2.39,3.26,3.26,0,0,1,1-2.41,3.43,3.43,0,0,1,2.48-1A3.37,3.37,0,0,1,61.33,310.34Zm.1,35.2H56.32V321.65h5.11Z"/><path class="cls-1" d="M90.91,321.65,79.38,346.08H77.63L66.05,321.65H71.5l7,15.81,7-15.81Z"/><path class="cls-1" d="M116.06,335.28H98.26a7.13,7.13,0,0,0,2.57,4.62,8.18,8.18,0,0,0,5.21,1.65,10.35,10.35,0,0,0,7-2.82l2.43,3.5a13.49,13.49,0,0,1-9.54,3.85,12.62,12.62,0,0,1-9.19-3.58,11.93,11.93,0,0,1-3.65-8.88,12.15,12.15,0,0,1,3.58-8.88,11.87,11.87,0,0,1,8.78-3.62,10.76,10.76,0,0,1,7.9,3.11,10.56,10.56,0,0,1,3.14,7.83A14.49,14.49,0,0,1,116.06,335.28ZM100.81,327a7.44,7.44,0,0,0-2.46,4.26h13a5.57,5.57,0,0,0-1.8-4.26,6.23,6.23,0,0,0-4.33-1.58A6.64,6.64,0,0,0,100.81,327Z"/><path class="cls-1" d="M136,321.65v4.53H134.4a7.34,7.34,0,0,0-5,1.73,6.1,6.1,0,0,0-2,4.88v12.75h-5.11V321.65h4.77v3.12a8.21,8.21,0,0,1,6.95-3.36A7.33,7.33,0,0,1,136,321.65Z"/><path class="cls-1" d="M156.44,324.82,153.67,328a7.49,7.49,0,0,0-5.6-2.43c-2.17,0-3.26.76-3.26,2.28a1.92,1.92,0,0,0,.71,1.53,8.73,8.73,0,0,0,2.45,1.29l2.29.93a14.46,14.46,0,0,1,5,3,5.77,5.77,0,0,1,1.56,4.16,6.35,6.35,0,0,1-2.53,5.37,10.16,10.16,0,0,1-6.32,1.93,11.52,11.52,0,0,1-9.64-4.63l2.92-3.21c2.18,2.27,4.41,3.41,6.72,3.41a5.1,5.1,0,0,0,2.74-.68,2.22,2.22,0,0,0,1.1-2,1.93,1.93,0,0,0-.8-1.65,13.53,13.53,0,0,0-2.56-1.32L146,335a14.07,14.07,0,0,1-4.69-2.87,5.53,5.53,0,0,1-1.54-4.08,6.06,6.06,0,0,1,2.39-5.06,9.51,9.51,0,0,1,6-1.85A10.26,10.26,0,0,1,156.44,324.82Z"/><path class="cls-1" d="M167.68,310.34a3.26,3.26,0,0,1,1,2.41,3.18,3.18,0,0,1-1,2.39,3.43,3.43,0,0,1-2.43,1,3.52,3.52,0,0,1-2.49-1,3.18,3.18,0,0,1-1-2.39,3.26,3.26,0,0,1,1-2.41,3.46,3.46,0,0,1,2.49-1A3.37,3.37,0,0,1,167.68,310.34Zm.1,35.2h-5.11V321.65h5.11Z"/><path class="cls-1" d="M189.37,341.21v4.33a19.87,19.87,0,0,1-4.23.54,9.43,9.43,0,0,1-6.47-2.07q-2.32-2.07-2.33-6.25V326.08h-3.89v-4.43h3.89v-6.27h5.15v6.27h7.11v4.43h-7.11v11.24a3.83,3.83,0,0,0,1.2,3.21,5.64,5.64,0,0,0,3.52.92A30,30,0,0,0,189.37,341.21Z"/><path class="cls-1" d="M216.62,321.65,205,348.26a12.44,12.44,0,0,1-3.6,5,8.27,8.27,0,0,1-5.16,1.58,16.41,16.41,0,0,1-3.94-.48V350c1.49.13,2.43.19,2.82.19a5.92,5.92,0,0,0,3.07-.75,5.78,5.78,0,0,0,2.14-2.75l1-2.24-9.53-22.82h5.49l6.86,17.42,7.06-17.42Z"/><path class="cls-1" d="M254.93,324.72a12.42,12.42,0,0,1,0,17.73,12.86,12.86,0,0,1-17.93,0,12.57,12.57,0,0,1,0-17.71,12.26,12.26,0,0,1,8.95-3.6A12.46,12.46,0,0,1,254.93,324.72Zm-14.26,3.33a8.37,8.37,0,0,0,0,11.09,7,7,0,0,0,5.3,2.22,7.05,7.05,0,0,0,5.3-2.22,7.6,7.6,0,0,0,2.15-5.52,7.75,7.75,0,0,0-2.12-5.57,7.36,7.36,0,0,0-10.61,0Z"/><path class="cls-1" d="M271.64,314.06a3.89,3.89,0,0,0-1.17,3.22v4.37h5.64v4.43h-5.64v19.46h-5.11V326.08H262v-4.43h3.4v-4.81c0-2.79.77-4.87,2.29-6.25a8.93,8.93,0,0,1,6.23-2.07,11.22,11.22,0,0,1,3.3.44v4.33a16.06,16.06,0,0,0-2-.15A5.61,5.61,0,0,0,271.64,314.06Z"/><path class="cls-1" d="M13.65,374.62a7.27,7.27,0,0,1,2,5.48v10.71H12.1v-2a6.94,6.94,0,0,1-5.66,2.38A6.81,6.81,0,0,1,2,389.8a4.6,4.6,0,0,1-1.69-3.72A4.42,4.42,0,0,1,2,382.41,7.61,7.61,0,0,1,6.8,381h5v-1.15a3.74,3.74,0,0,0-1-2.81,3.81,3.81,0,0,0-2.79-1,6.44,6.44,0,0,0-4.91,2.63L.93,376.5a8.61,8.61,0,0,1,7.46-3.79A7.28,7.28,0,0,1,13.65,374.62Zm-3.17,12.47a3.86,3.86,0,0,0,1.33-3v-.32H7.27c-2.09,0-3.14.72-3.14,2.16A2,2,0,0,0,5,387.67a3.75,3.75,0,0,0,2.23.61A4.67,4.67,0,0,0,10.48,387.09Z"/><path class="cls-1" d="M36.82,375.35a10.14,10.14,0,0,1,0,13.22,8.16,8.16,0,0,1-6.24,2.63,7.32,7.32,0,0,1-5.91-2.52v8.61H20.89V373.11h3.53v2.52a6.69,6.69,0,0,1,2.6-2.14,8.11,8.11,0,0,1,3.56-.78A8.13,8.13,0,0,1,36.82,375.35Zm-3,10.77a6.36,6.36,0,0,0,0-8.32A5.11,5.11,0,0,0,30,376.17a5.33,5.33,0,0,0-3.76,1.46,5.6,5.6,0,0,0-1.57,4.31,5.67,5.67,0,0,0,1.57,4.31A5.27,5.27,0,0,0,30,387.74,5.13,5.13,0,0,0,33.83,386.12Z"/><path class="cls-1" d="M59.56,375.35a10.14,10.14,0,0,1,0,13.22,8.16,8.16,0,0,1-6.24,2.63,7.32,7.32,0,0,1-5.91-2.52v8.61H43.63V373.11h3.53v2.52a6.69,6.69,0,0,1,2.6-2.14,8.63,8.63,0,0,1,9.8,1.86Zm-3,10.77a6.36,6.36,0,0,0,0-8.32,5.11,5.11,0,0,0-3.86-1.63A5.33,5.33,0,0,0,49,377.63a5.6,5.6,0,0,0-1.57,4.31A5.67,5.67,0,0,0,49,386.25a5.27,5.27,0,0,0,3.76,1.49A5.13,5.13,0,0,0,56.57,386.12Z"/><path class="cls-1" d="M70.15,390.81H66.37v-27h3.78Z"/><path class="cls-1" d="M79.34,364.73a2.4,2.4,0,0,1,.76,1.79,2.32,2.32,0,0,1-.76,1.76,2.51,2.51,0,0,1-1.8.72,2.58,2.58,0,0,1-1.84-.72,2.35,2.35,0,0,1-.75-1.76,2.43,2.43,0,0,1,.75-1.79,2.56,2.56,0,0,1,1.84-.74A2.48,2.48,0,0,1,79.34,364.73Zm.07,26.08H75.63v-17.7h3.78Z"/><path class="cls-1" d="M100.82,383.2H87.63a5.24,5.24,0,0,0,1.91,3.42,6,6,0,0,0,3.86,1.23,7.68,7.68,0,0,0,5.15-2.09l1.8,2.59a10,10,0,0,1-7.06,2.85,9.31,9.31,0,0,1-6.81-2.65A8.84,8.84,0,0,1,83.77,382a9,9,0,0,1,2.65-6.58,8.81,8.81,0,0,1,6.51-2.69A8,8,0,0,1,98.78,375a7.84,7.84,0,0,1,2.33,5.8A10.8,10.8,0,0,1,100.82,383.2Zm-11.3-6.11a5.55,5.55,0,0,0-1.82,3.16h9.62A4.11,4.11,0,0,0,96,377.09a4.6,4.6,0,0,0-3.21-1.17A4.91,4.91,0,0,0,89.52,377.09Z"/><path class="cls-1" d="M122.69,363.78v27h-3.53v-2.53a7.06,7.06,0,0,1-6.2,2.92,8.11,8.11,0,0,1-6.19-2.63,10.13,10.13,0,0,1,0-13.21,8.09,8.09,0,0,1,6.19-2.65,7.21,7.21,0,0,1,5.91,2.56V363.78Zm-5.31,22.5a6.65,6.65,0,0,0,0-8.61,5.28,5.28,0,0,0-3.75-1.5,5.13,5.13,0,0,0-3.89,1.63,6.36,6.36,0,0,0,0,8.32,5.15,5.15,0,0,0,3.89,1.62A5.31,5.31,0,0,0,117.38,386.28Z"/><path class="cls-1" d="M150.05,375.45,148,377.8a5.51,5.51,0,0,0-4.14-1.81c-1.61,0-2.42.57-2.42,1.7a1.44,1.44,0,0,0,.53,1.13,6.49,6.49,0,0,0,1.82,1l1.69.68a10.85,10.85,0,0,1,3.68,2.26,4.3,4.3,0,0,1,1.15,3.08,4.72,4.72,0,0,1-1.88,4,7.49,7.49,0,0,1-4.68,1.42,8.51,8.51,0,0,1-7.13-3.42l2.16-2.38a6.94,6.94,0,0,0,5,2.52,3.85,3.85,0,0,0,2-.5,1.64,1.64,0,0,0,.81-1.48,1.4,1.4,0,0,0-.6-1.22,9.3,9.3,0,0,0-1.89-1l-1.8-.75a10.63,10.63,0,0,1-3.48-2.13,4.12,4.12,0,0,1-1.13-3,4.49,4.49,0,0,1,1.76-3.75,7.11,7.11,0,0,1,4.47-1.37A7.63,7.63,0,0,1,150.05,375.45Z"/><path class="cls-1" d="M167.29,373.81a8.47,8.47,0,0,1,3.08,3l-2.67,2.09a5.65,5.65,0,0,0-4.75-2.7,5.22,5.22,0,0,0-4,1.66,5.67,5.67,0,0,0-1.57,4.07,5.73,5.73,0,0,0,1.57,4.13,5.27,5.27,0,0,0,4,1.64A5.72,5.72,0,0,0,167.7,385l2.67,2a8.25,8.25,0,0,1-7.46,4.11,9.11,9.11,0,0,1-6.65-2.68,9.29,9.29,0,0,1,0-13.14,9.14,9.14,0,0,1,6.65-2.67A8.71,8.71,0,0,1,167.29,373.81Z"/><path class="cls-1" d="M178.26,364.73a2.4,2.4,0,0,1,.76,1.79,2.32,2.32,0,0,1-.76,1.76,2.51,2.51,0,0,1-1.8.72,2.58,2.58,0,0,1-1.84-.72,2.35,2.35,0,0,1-.75-1.76,2.43,2.43,0,0,1,.75-1.79,2.56,2.56,0,0,1,1.84-.74A2.48,2.48,0,0,1,178.26,364.73Zm.08,26.08h-3.79v-17.7h3.79Z"/><path class="cls-1" d="M199.74,383.2H186.55a5.24,5.24,0,0,0,1.91,3.42,6,6,0,0,0,3.86,1.23,7.68,7.68,0,0,0,5.15-2.09l1.8,2.59a10,10,0,0,1-7.06,2.85,9.31,9.31,0,0,1-6.81-2.65,8.83,8.83,0,0,1-2.7-6.57,9,9,0,0,1,2.64-6.58,8.81,8.81,0,0,1,6.51-2.69,8,8,0,0,1,5.86,2.31,7.87,7.87,0,0,1,2.32,5.8A10.8,10.8,0,0,1,199.74,383.2Zm-11.3-6.11a5.55,5.55,0,0,0-1.82,3.16h9.63a4.15,4.15,0,0,0-1.34-3.16,4.6,4.6,0,0,0-3.21-1.17A4.92,4.92,0,0,0,188.44,377.09Z"/><path class="cls-1" d="M218.05,374.64a7.3,7.3,0,0,1,1.76,5.1v11.07H216V380.25a4.18,4.18,0,0,0-1.06-3,3.68,3.68,0,0,0-2.8-1.13,3.9,3.9,0,0,0-2.9,1.15,4.07,4.07,0,0,0-1.13,3v10.56h-3.79v-17.7h3.54v1.77a6.83,6.83,0,0,1,5.29-2.17A6.3,6.3,0,0,1,218.05,374.64Z"/><path class="cls-1" d="M237.71,373.81a8.54,8.54,0,0,1,3.08,3l-2.67,2.09a5.66,5.66,0,0,0-4.76-2.7,5.23,5.23,0,0,0-4,1.66,5.71,5.71,0,0,0-1.57,4.07,5.77,5.77,0,0,0,1.57,4.13,5.29,5.29,0,0,0,4,1.64,5.74,5.74,0,0,0,4.76-2.67l2.67,2a8.27,8.27,0,0,1-7.46,4.11,9.1,9.1,0,0,1-6.65-2.68,9.29,9.29,0,0,1,0-13.14,9.13,9.13,0,0,1,6.65-2.67A8.74,8.74,0,0,1,237.71,373.81Z"/><path class="cls-1" d="M260.53,383.2H247.35a5.2,5.2,0,0,0,1.91,3.42,6,6,0,0,0,3.85,1.23,7.66,7.66,0,0,0,5.15-2.09l1.81,2.59A10,10,0,0,1,253,391.2a9.31,9.31,0,0,1-6.81-2.65,8.83,8.83,0,0,1-2.7-6.57,9,9,0,0,1,2.65-6.58,8.77,8.77,0,0,1,6.5-2.69A8,8,0,0,1,258.5,375a7.83,7.83,0,0,1,2.32,5.8A10.23,10.23,0,0,1,260.53,383.2Zm-11.29-6.11a5.5,5.5,0,0,0-1.82,3.16H257a4.15,4.15,0,0,0-1.33-3.16,4.63,4.63,0,0,0-3.21-1.17A4.89,4.89,0,0,0,249.24,377.09Z"/><path class="cls-1" d="M276.93,375.45l-2.05,2.35a5.54,5.54,0,0,0-4.15-1.81c-1.61,0-2.41.57-2.41,1.7a1.43,1.43,0,0,0,.52,1.13,6.8,6.8,0,0,0,1.82,1l1.7.68a10.79,10.79,0,0,1,3.67,2.26,4.26,4.26,0,0,1,1.15,3.08,4.71,4.71,0,0,1-1.87,4,7.51,7.51,0,0,1-4.68,1.42,8.52,8.52,0,0,1-7.14-3.42l2.16-2.38a7,7,0,0,0,5,2.52,3.84,3.84,0,0,0,2-.5,1.64,1.64,0,0,0,.81-1.48,1.42,1.42,0,0,0-.59-1.22,9.89,9.89,0,0,0-1.89-1l-1.81-.75a10.47,10.47,0,0,1-3.47-2.13,4.13,4.13,0,0,1-1.14-3,4.5,4.5,0,0,1,1.77-3.75,7.07,7.07,0,0,1,4.47-1.37A7.63,7.63,0,0,1,276.93,375.45Z"/><polygon class="cls-1" points="123.56 124.75 123.56 64.58 114.06 64.58 114.06 104.48 78.1 63.59 74.78 63.59 74.78 123.76 84.28 123.76 84.28 83.77 120.33 124.75 123.56 124.75"/><polygon class="cls-1" points="177.81 123.76 187.32 123.76 187.32 64.58 177.81 64.58 177.81 88.16 148.04 88.16 148.04 64.58 138.53 64.58 138.53 123.76 148.04 123.76 148.04 96.68 177.81 96.68 177.81 123.76"/><path class="cls-1" d="M100.2,203.79A11.57,11.57,0,0,1,92.8,206q-9,0-15.51-9.42l-6.73,5.12a24.93,24.93,0,0,0,9.24,9.41,25.48,25.48,0,0,0,13.09,3.41q8.61,0,14.22-4.71a15.44,15.44,0,0,0,5.6-12.42,13.83,13.83,0,0,0-3.5-9.68q-3.49-3.86-10.67-7.18l-6.63-3.05a30.94,30.94,0,0,1-6.37-3.76,5.8,5.8,0,0,1-1.88-4.67,6.1,6.1,0,0,1,2.6-5.33,10.69,10.69,0,0,1,6.36-1.84q7.72,0,12.47,7.17l6.63-5.11a21.11,21.11,0,0,0-7.8-7.67,22.09,22.09,0,0,0-11.3-2.91,20.16,20.16,0,0,0-13.27,4.44A14.32,14.32,0,0,0,74,169.44,13.46,13.46,0,0,0,77.6,179a31.8,31.8,0,0,0,10.18,6.81l6.55,3.05a28.53,28.53,0,0,1,6.68,3.95,6.27,6.27,0,0,1,2,4.93A7.3,7.3,0,0,1,100.2,203.79Z"/><polygon class="cls-1" points="148.31 213.56 148.31 162.9 168.31 162.9 168.31 154.38 118.9 154.38 118.9 162.9 138.8 162.9 138.8 213.56 148.31 213.56"/><polygon class="cls-1" points="217.18 205.04 186.69 205.04 186.69 186.3 208.84 186.3 208.84 178.05 186.69 178.05 186.69 162.9 216.1 162.9 216.1 154.38 177.18 154.38 177.18 213.56 217.18 213.56 217.18 205.04"/><path class="cls-1" d="M310.52,154.38H292v59.18h18.56q14.53,0,23.37-8.29t8.83-21.39q0-13.19-8.79-21.34T310.52,154.38Zm16.33,44.75Q320.74,205,310.43,205h-9V163h9q10.41,0,16.46,5.69t6.05,15.2Q332.94,193.21,326.85,199.13Z"/><polygon class="cls-1" points="363.52 186.3 385.67 186.3 385.67 178.05 363.52 178.05 363.52 162.9 392.93 162.9 392.93 154.38 354.01 154.38 354.01 213.56 394.01 213.56 394.01 205.04 363.52 205.04 363.52 186.3"/><polygon class="cls-1" points="444.31 154.38 444.31 194.28 408.35 153.39 405.04 153.39 405.04 213.56 414.54 213.56 414.54 173.57 450.59 214.55 453.82 214.55 453.82 154.38 444.31 154.38"/><polygon class="cls-1" points="0.57 277.41 277.37 277.41 277.37 228.4 277.37 213.56 277.37 212.47 277.37 154.38 267.25 154.38 267.25 194.02 231.52 153.39 228.21 153.39 228.21 213.56 237.71 213.56 237.71 173.57 267.25 207.15 267.25 212.47 267.25 213.56 267.25 228.4 267.25 267.3 10.69 267.3 10.69 10.73 267.25 10.73 267.25 69.89 267.25 97.72 267.25 115.19 267.25 115.24 238.88 115.24 230.98 115.24 211.8 115.24 211.8 64.58 202.29 64.58 202.29 123.76 230.98 123.76 238.88 123.76 254.22 123.76 254.22 123.71 277.37 123.71 277.37 116.55 277.37 116.24 277.37 115.24 277.37 115.19 277.37 97.72 277.37 69.89 277.37 0.62 0.57 0.62 0.57 277.41"/></svg>